<svg xmlns="http://www.w3.org/2000/svg" viewBox="0 0 520.48 520.48" id="linkedin">
  <rect width="520.48" height="520.48" fill="#007ebb" rx="49.82" ry="49.82"></rect>
  <path fill="#fefffc" d="M124.12 173c-6.85-6.36-10.27-14.24-10.27-23.61s3.42-17.6 10.27-23.97c6.85-6.36 15.68-9.55 26.5-9.55s19.29 3.19 26.14 9.55c6.85 6.37 10.27 14.36 10.27 23.97s-3.42 17.25-10.27 23.61c-6.85 6.37-15.56 9.55-26.14 9.55s-19.65-3.18-26.5-9.55zm57.14 36.51v195.1h-61.64v-195.1h61.64zM386.49 228.78c13.43 14.59 20.15 34.62 20.15 60.11v112.29h-58.56v-104.37c0-12.86-3.33-22.85-9.99-29.97-6.66-7.12-15.62-10.68-26.87-10.68s-20.21 3.56-26.87 10.68c-6.66 7.12-9.99 17.11-9.99 29.97v104.37h-58.9v-192.21h58.9v25.49c5.97-8.49 14-15.21 24.11-20.15 10.1-4.94 21.47-7.41 34.1-7.41 22.5 0 40.47 7.29 53.91 21.87z"></path>
</svg>
